<?xml version="1.0" encoding="UTF-8" standalone="no"?>
<!-- Created with Inkscape (http://www.inkscape.org/) -->

<svg
   width="297.45413mm"
   height="288.09189mm"
   viewBox="0 0 305.454 295.83996"
   version="1.1"
   id="svg5"
   xml:space="preserve"
   inkscape:version="1.2.1 (9c6d41e410, 2022-07-14)"
   sodipodi:docname="logo+txt-gris-fonce.svg"
   inkscape:export-filename="logo+txt-gris-fonce.png"
   inkscape:export-xdpi="256.17395"
   inkscape:export-ydpi="256.17395"
   xmlns:inkscape="http://www.inkscape.org/namespaces/inkscape"
   xmlns:sodipodi="http://sodipodi.sourceforge.net/DTD/sodipodi-0.dtd"
   xmlns="http://www.w3.org/2000/svg"
   xmlns:svg="http://www.w3.org/2000/svg"><sodipodi:namedview
     id="namedview7"
     pagecolor="#ffffff"
     bordercolor="#000000"
     borderopacity="0.25"
     inkscape:showpageshadow="2"
     inkscape:pageopacity="0.0"
     inkscape:pagecheckerboard="0"
     inkscape:deskcolor="#d1d1d1"
     inkscape:document-units="mm"
     showgrid="false"
     inkscape:zoom="0.70710678"
     inkscape:cx="703.57125"
     inkscape:cy="598.21234"
     inkscape:window-width="1920"
     inkscape:window-height="1017"
     inkscape:window-x="1912"
     inkscape:window-y="-8"
     inkscape:window-maximized="1"
     inkscape:current-layer="g2255" /><defs
     id="defs2"><rect
       x="244.66577"
       y="938.83374"
       width="739.68719"
       height="218.1129"
       id="rect403" /></defs><g
     inkscape:label="Calque 1"
     inkscape:groupmode="layer"
     id="layer1"
     transform="translate(47.343494,-10.480952)"><g
       id="g2255"
       transform="translate(3.9999363,3.8740385)"><g
         id="g208"
         transform="matrix(0.2779667,0,0,0.2779667,-51.838216,8.9715933)">
	<path
   class="st0"
   d="M 306.78,316.52 315.4,278.68 267,166.38 338.41,131.96 228.14,82.49 16.17,316.57 173.28,590.5 l 42.96,-9 c -3.98,-18.49 -6.09,-37.67 -6.09,-57.34 0.01,-83.32 37.55,-157.85 96.63,-207.64 z"
   id="path184" />
	<path
   class="st1"
   d="m 703.49,453.46 -122.29,0.05 -98.72,72.17 -0.11,-0.14 -0.02,0.17 -266.11,55.77 c 26.32,122.36 135.11,214.09 265.34,214.09 149.91,0 271.43,-121.52 271.43,-271.43 0,-56.07 -17.01,-108.17 -46.14,-151.43 z"
   id="path186" />
	<path
   class="st2"
   d="M 482.38,525.54 406.21,430.1 288.23,397.92 306.77,316.53 c -59.07,49.79 -96.62,124.32 -96.62,207.62 0,19.68 2.11,38.86 6.09,57.34 l 266.11,-55.77 z"
   id="path188" />
	<path
   class="st3"
   d="M 482.38,525.54 406.21,430.1 288.23,397.92 306.77,316.53 c -59.07,49.79 -96.62,124.32 -96.62,207.62 0,19.68 2.11,38.86 6.09,57.34 l 266.11,-55.77 z"
   id="path190" />
	<path
   class="st4"
   d="m 511.66,254.38 c 81.28,8.96 151.75,53.79 195.22,118.34 l 1.74,-41.44 76.21,-95.64 L 692.5,155.46 665.24,36.25 544.98,58.44 434.79,5.43 l -57.63,107.86 -38.75,18.68 177.85,79.79 z"
   id="path192" />
	<path
   class="st2"
   d="m 315.4,278.69 -8.62,37.84 c 47.23,-39.81 108.21,-63.81 174.81,-63.81 10.17,0 20.19,0.58 30.07,1.67 l 4.6,-42.63 L 338.41,131.97 267,166.38 Z"
   id="path194" />
	<path
   class="st5"
   d="m 315.4,278.69 -8.62,37.84 c 47.23,-39.81 108.21,-63.81 174.81,-63.81 10.17,0 20.19,0.58 30.07,1.67 l 4.6,-42.63 L 338.41,131.97 267,166.38 Z"
   id="path196" />
	<path
   class="st2"
   d="m 511.66,254.38 -29.28,271.16 0.11,0.14 98.72,-72.17 122.29,-0.05 3.39,-80.74 C 663.41,308.18 592.94,263.34 511.66,254.38 Z"
   id="path198" />
	<path
   class="st6"
   d="m 511.66,254.38 -29.28,271.16 0.11,0.14 98.72,-72.17 122.29,-0.05 3.39,-80.74 C 663.41,308.18 592.94,263.34 511.66,254.38 Z"
   id="path200" />
	<path
   class="st2"
   d="m 481.59,252.72 c -66.6,0 -127.59,24 -174.81,63.81 l -18.54,81.39 117.98,32.18 76.17,95.44 29.28,-271.16 c -9.89,-1.09 -19.92,-1.66 -30.08,-1.66 z"
   id="path202" />
	<path
   class="st2"
   d="m 481.59,252.72 c -66.6,0 -127.59,24 -174.81,63.81 l -18.54,81.39 117.98,32.18 76.17,95.44 29.28,-271.16 c -9.89,-1.09 -19.92,-1.66 -30.08,-1.66 z"
   id="path204" />
	<path
   class="st7"
   d="m 481.59,252.72 c -66.6,0 -127.59,24 -174.81,63.81 l -18.54,81.39 117.98,32.18 76.17,95.44 29.28,-271.16 c -9.89,-1.09 -19.92,-1.66 -30.08,-1.66 z"
   id="path206" />
</g><g
         aria-label="LORITZ"
         transform="matrix(0.63490813,0,0,0.63490813,-229.56633,-354.0001)"
         id="text401"
         style="font-weight:bold;font-size:96px;-inkscape-font-specification:'sans-serif Bold';text-align:center;letter-spacing:-2.91709px;white-space:pre;shape-inside:url(#rect403);display:inline;fill:#58585a;stroke-width:11.3386"><path
           d="m 494.5603,1015.8226 h 14.01563 l 1.73437,-7.5 q 0.375,-1.6406 1.125,-1.6406 l 7.78125,1.6406 q 0.98438,0.1875 1.35938,0.4219 0.375,0.1875 0.375,0.8438 l -0.1875,1.2187 -3.09375,13.6406 q -0.28125,1.125 -0.70313,1.4532 -0.42187,0.2812 -1.40625,0.2812 h -38.85937 q -1.125,0 -1.59375,-0.375 -0.42188,-0.375 -0.42188,-1.6406 v -5.2031 q 0,-1.2657 0.42188,-1.6407 0.46875,-0.375 1.59375,-0.375 h 4.875 v -47.29685 h -4.875 q -1.125,0 -1.59375,-0.375 -0.42188,-0.375 -0.42188,-1.64062 V 962.432 q 0,-1.26562 0.42188,-1.64062 0.46875,-0.375 1.59375,-0.375 h 23.01562 q 1.125,0 1.54688,0.375 0.46875,0.32812 0.46875,1.64062 v 5.20313 q 0,1.3125 -0.46875,1.6875 -0.42188,0.32812 -1.54688,0.32812 h -5.15625 z"
           style="font-family:'Officina Serif';-inkscape-font-specification:'Officina Serif Bold'"
           id="path1845" /><path
           d="m 571.89321,993.3695 q 0,4.73438 -0.60937,9.8906 -0.60938,5.1094 -2.85938,10.7813 -2.20312,5.625 -7.26562,9.7031 -5.01563,4.0781 -13.17188,4.0781 -10.5,0 -15.84375,-6.4687 -5.34375,-6.4688 -6.70312,-13.9219 -1.35938,-7.45312 -1.35938,-14.0625 0,-6.70312 1.35938,-14.15625 1.40625,-7.5 6.70312,-13.96875 5.34375,-6.46875 15.84375,-6.46875 10.54688,0 15.84375,6.51563 5.29688,6.51562 6.65625,14.01562 1.40625,7.5 1.40625,14.0625 z m -23.90625,24.375 q 6.32813,0 8.29688,-7.3594 1.96875,-7.4062 1.96875,-17.0156 0,-5.90625 -0.65625,-11.10937 -0.60938,-5.25 -2.90625,-9.32813 -2.29688,-4.07812 -6.70313,-4.07812 -10.26562,0 -10.26562,24.51562 0,9.6094 1.96875,17.0156 1.96875,7.3594 8.29687,7.3594 z"
           style="font-family:'Officina Serif';-inkscape-font-specification:'Officina Serif Bold'"
           id="path1847" /><path
           d="m 631.4605,1018.9633 v 5.2031 q 0,1.3125 -0.46875,1.6875 -0.42188,0.3281 -1.54688,0.3281 h -12.28125 q -1.03125,0 -1.40625,-0.2344 -0.32812,-0.2812 -0.70312,-1.0312 l -13.07813,-25.9219 h -4.59375 v 17.9531 h 4.5 q 1.125,0 1.54688,0.375 0.46875,0.3282 0.46875,1.6407 v 5.2031 q 0,1.3125 -0.46875,1.6875 -0.42188,0.3281 -1.54688,0.3281 H 579.523 q -1.125,0 -1.59375,-0.375 -0.42188,-0.375 -0.42188,-1.6406 v -5.2031 q 0,-1.2657 0.42188,-1.6407 0.46875,-0.375 1.59375,-0.375 h 4.875 v -47.29685 h -4.875 q -1.125,0 -1.59375,-0.375 -0.42188,-0.375 -0.42188,-1.64062 V 962.432 q 0,-1.26562 0.42188,-1.64062 0.46875,-0.375 1.59375,-0.375 h 22.45312 q 5.95313,0 9.89063,1.03125 3.98437,0.98437 7.125,3.79687 1.96875,1.73438 3.1875,3.9375 1.26562,2.20313 1.6875,4.5 0.46875,2.25 0.46875,5.25 0,4.125 -0.70313,6.79688 -0.70312,2.67187 -2.25,4.82812 -2.85937,4.125 -7.03125,5.76563 l -0.9375,0.375 11.625,20.24997 h 4.40625 q 1.125,0 1.54688,0.375 0.46875,0.3282 0.46875,1.6407 z m -34.07813,-30.04692 h 2.48438 q 3.09375,0 5.20312,-0.375 2.10938,-0.42188 3.9375,-2.10938 2.39063,-2.39062 2.39063,-7.3125 0,-4.40625 -2.29688,-6.60937 -1.3125,-1.26563 -3.28125,-1.64063 -1.96875,-0.375 -4.875,-0.375 h -3.5625 z"
           style="font-family:'Officina Serif';-inkscape-font-specification:'Officina Serif Bold'"
           id="path1849" /><path
           d="m 659.85591,1018.9633 v 5.2031 q 0,1.2656 -0.46875,1.6406 -0.42187,0.375 -1.54687,0.375 h -22.78125 q -1.125,0 -1.59375,-0.375 -0.42188,-0.375 -0.42188,-1.6406 v -5.2031 q 0,-1.2657 0.42188,-1.6407 0.46875,-0.375 1.59375,-0.375 h 4.92187 v -47.29685 h -4.92187 q -1.125,0 -1.59375,-0.375 -0.42188,-0.375 -0.42188,-1.64062 V 962.432 q 0,-1.26562 0.42188,-1.64062 0.46875,-0.375 1.59375,-0.375 h 22.78125 q 1.125,0 1.54687,0.375 0.46875,0.375 0.46875,1.64062 v 5.20313 q 0,1.26562 -0.46875,1.64062 -0.42187,0.375 -1.54687,0.375 h -4.92188 v 47.29685 h 4.92188 q 1.125,0 1.54687,0.375 0.46875,0.375 0.46875,1.6407 z"
           style="font-family:'Officina Serif';-inkscape-font-specification:'Officina Serif Bold'"
           id="path1851" /><path
           d="m 701.09506,1018.9633 v 5.2031 q 0,1.3125 -0.46875,1.6875 -0.42187,0.3281 -1.54687,0.3281 h -25.64063 q -1.125,0 -1.59375,-0.375 -0.42187,-0.375 -0.42187,-1.6406 v -5.2031 q 0,-1.2657 0.42187,-1.6407 0.46875,-0.375 1.59375,-0.375 h 6.32813 v -46.17185 h -6.98438 v 9.23438 q 0,0.70312 -0.23437,1.07812 -0.1875,0.32813 -0.51563,0.46875 -0.28125,0.0937 -0.89062,0.0937 h -5.67188 q -0.98437,0 -1.3125,-0.32812 -0.32812,-0.375 -0.32812,-1.3125 V 962.057 q 0,-0.9375 0.28125,-1.26562 0.32812,-0.375 1.35937,-0.375 h 41.57813 q 0.84375,0 1.21875,0.32812 0.42187,0.32813 0.42187,1.3125 v 17.95313 q 0,0.70312 -0.23437,1.07812 -0.1875,0.32813 -0.51563,0.46875 -0.28125,0.0937 -0.89062,0.0937 h -5.67188 q -0.98437,0 -1.3125,-0.32812 -0.32812,-0.375 -0.32812,-1.3125 v -9.23438 h -6.98438 v 46.17185 h 6.32813 q 1.125,0 1.54687,0.375 0.46875,0.3282 0.46875,1.6407 z"
           style="font-family:'Officina Serif';-inkscape-font-specification:'Officina Serif Bold'"
           id="path1853" /><path
           d="m 726.20923,1015.8226 h 17.20312 l 1.6875,-7.6875 q 0.28125,-0.8437 0.60938,-1.0312 0.375,-0.2344 1.64062,-0.2344 l 6.98438,1.5469 q 0.79687,0.1406 0.98437,0.5625 0.1875,0.375 0.1875,1.7344 l -3.09375,13.7343 q -0.28125,1.1719 -0.65625,1.4532 -0.375,0.2812 -1.45312,0.2812 h -36.1875 q -0.98438,0 -1.3125,-0.3281 -0.32813,-0.375 -0.32813,-1.3125 v -7.9688 l 26.8125,-45.79685 H 723.8186 v 7.6875 q 0,0.70313 -0.23437,1.07813 -0.1875,0.32812 -0.51563,0.46875 -0.28125,0.0937 -0.89062,0.0937 h -7.125 q -0.9375,0 -1.26563,-0.32813 -0.32812,-0.375 -0.32812,-1.3125 V 962.057 q 0,-0.98437 0.32812,-1.3125 0.375,-0.32812 1.26563,-0.32812 h 35.53125 q 1.26562,0 1.64062,0.42187 0.375,0.42188 0.375,1.5 v 8.625 z"
           style="font-family:'Officina Serif';-inkscape-font-specification:'Officina Serif Bold'"
           id="path1855" /></g></g></g><style
     type="text/css"
     id="style182">
	.st0{fill:#73B22C;}
	.st1{fill:#E8541E;}
	.st2{opacity:0.5;fill:#FFFFFF;}
	.st3{fill:#F1E62A;}
	.st4{fill:#2B80BF;}
	.st5{fill:#22A8DC;}
	.st6{fill:#E1127A;}
	.st7{fill:#FFFFFF;}
</style></svg>
