<?xml version="1.0" encoding="utf-8"?>
<!-- Generator: Adobe Illustrator 25.4.1, SVG Export Plug-In . SVG Version: 6.00 Build 0)  -->
<svg version="1.1" id="Calque_1" xmlns="http://www.w3.org/2000/svg" xmlns:xlink="http://www.w3.org/1999/xlink" x="0px" y="0px"
	 viewBox="0 0 705 705" style="enable-background:new 0 0 705 705;" xml:space="preserve">
<style type="text/css">
	.st0{fill:#16A477;}
	.st1{fill:#29261F;}
	.st2{fill:#FFCB05;}
	.st3{fill:#F1B100;}
</style>
<g id="Calque_2_00000043444296965187815150000000802881540056101787_">
	<g id="Calque_1-2">
		<circle class="st0" cx="352.5" cy="352.5" r="352.4"/>
		<path class="st1" d="M377.6,335.8l-0.5,0.5L377.6,335.8z"/>
		<path class="st1" d="M374.5,338.8l-0.1,0.1L374.5,338.8z"/>
		<path class="st1" d="M371.6,341.6l-0.2,0.2L371.6,341.6z"/>
		<path class="st2" d="M628.2,252.1l-14.7-5.8c-90.5-35.6-191.8,0.5-234.1,81.6l0,0c-55.1,91.7-47.2,152.6-47.2,152.6l0,0
			c3.9,49.5,37.2,93.7,86.1,112.8l11.4,4.5l0.2,0.1c14.8,5.7,31.3-1,36.8-15l4.5-11.2c16.7-41.1,9.7-88.1-18.5-124.2
			c-4.3-5.5-9-10.6-14-15.4c2.3,0,4.6,0,6.9,0c11.3-0.6,18.8-1.2,18.8-1.2l0.1,0.1c76.2-7.8,141.8-54.9,170-124l8.9-22
			C648.5,272,641.7,257.4,628.2,252.1z"/>
		<path class="st2" d="M227.1,87.2l14.6,6.2c89.4,38.3,136,135.2,109,222.6l0,0c-25.3,103.9-73.8,141.6-73.8,141.6l0,0
			c-37.6,32.5-92.3,40.4-140.6,19.7l-11.2-4.8l-0.2-0.1c-14.5-6.3-21.5-22.7-15.6-36.6l4.7-11.2c17.1-41,55.1-69.5,100.5-75.3
			c6.9-0.9,13.9-1.3,20.8-1.1c-1.7-1.6-3.3-3.2-4.9-4.9c-7.6-8.4-12.5-14.1-12.5-14.1h-0.1c-48.7-59.2-62.2-138.8-33.6-207.7
			l9.2-21.9C198.7,87,213.8,81.4,227.1,87.2z"/>
		<path class="st3" d="M440.4,432h5.3c139.1-1,186.2-119.1,186.2-119.1c-62.5,121.6-209.3,62.6-209.3,62.6
			c-10.8,17.3,3.7,41.1,16.1,56.5L440.4,432z"/>
		<path class="st3" d="M234,347.1l-3.8-3.8c-98.2-98.5-48.6-215.6-48.6-215.6c-41.1,130.4,104.7,191.7,104.7,191.7
			c-4.5,19.9-31.5,26.6-51.2,28.8L234,347.1z"/>
		<path class="st3" d="M440.8,599.9c-0.7,0-1.5,0-2.2-0.1C439.4,599.8,440.1,599.9,440.8,599.9z"/>
		<path class="st3" d="M438.3,599.8c-0.8-0.1-1.6-0.2-2.5-0.3C436.7,599.6,437.5,599.7,438.3,599.8z"/>
		<path class="st3" d="M435.1,599.3c-0.6-0.1-1.2-0.3-1.9-0.4C433.8,599,434.5,599.2,435.1,599.3z"/>
		<path class="st3" d="M432.5,598.7c-0.8-0.2-1.7-0.5-2.5-0.8C430.8,598.2,431.6,598.5,432.5,598.7z"/>
		<path class="st3" d="M381.1,571.6c-2.4-2-4.8-4.1-7.1-6.2C376.4,567.6,378.7,569.7,381.1,571.6z"/>
		<path class="st3" d="M446.5,599.3c-0.8,0.2-1.5,0.3-2.3,0.3C445,599.6,445.8,599.5,446.5,599.3z"/>
		<polygon class="st3" points="360.2,363.7 360.2,363.7 360.2,363.7 		"/>
		<path class="st3" d="M443.4,599.8c-0.5,0-1.1,0.1-1.7,0.1C442.2,599.8,442.8,599.8,443.4,599.8z"/>
		<path class="st3" d="M332.1,478.5c0-0.1,0-0.2,0-0.2C332.1,478.3,332.1,478.4,332.1,478.5z"/>
		<path class="st3" d="M332.2,480.1c0-0.1,0-0.1,0-0.2C332.2,479.9,332.2,480,332.2,480.1z"/>
		<path class="st3" d="M332.2,479.4c0-0.1,0-0.2,0-0.3C332.2,479.3,332.2,479.3,332.2,479.4z"/>
		<path class="st3" d="M332,477.2L332,477.2z"/>
		<path class="st3" d="M374.1,565.5c-4.5-4.2-8.8-8.8-12.7-13.6C365.3,556.7,369.5,561.3,374.1,565.5z"/>
		<path class="st3" d="M348,532.2c-1-1.7-1.9-3.5-2.7-5.2C346.1,528.7,347,530.4,348,532.2z"/>
		<path class="st3" d="M361.4,551.9c-1.4-1.7-2.6-3.3-3.9-5C358.7,548.6,360,550.3,361.4,551.9z"/>
		<path class="st3" d="M339,512.2c-0.1-0.2-0.1-0.4-0.2-0.5C338.9,511.8,339,512,339,512.2z"/>
		<path class="st3" d="M332,477.1v0.1c0,0.4,0,0.7,0.1,1c0,0.1,0,0.2,0,0.2c0,0.3,0,0.5,0,0.7s0,0.2,0,0.3s0,0.3,0,0.5
			c0,0.1,0,0.1,0,0.2c0,0.2,0,0.4,0,0.4l0,0c0.8,10.6,3,21.1,6.5,31.2c0.1,0.2,0.1,0.4,0.2,0.5c1.8,5,3.9,10,6.2,14.7
			c0.9,1.8,1.8,3.5,2.7,5.2c2.8,5.1,6,10,9.5,14.7c1.3,1.7,2.5,3.4,3.9,5c3.9,4.8,8.2,9.3,12.7,13.6c2.3,2.1,4.6,4.2,7.1,6.2
			c4.9,4,10.1,7.6,15.5,10.9c6.9,4.2,14.2,7.8,21.7,10.8l11.4,4.5l0.2,0.1l0,0c0.8,0.3,1.7,0.6,2.5,0.8l0.8,0.2
			c0.6,0.2,1.2,0.3,1.9,0.4c0.2,0,0.5,0.1,0.8,0.2c0.8,0.1,1.6,0.2,2.5,0.3h0.3c0.7,0,1.5,0.1,2.2,0.1h0.9c0.6,0,1.1,0,1.7-0.1
			l0.9-0.1c0.8-0.1,1.5-0.2,2.3-0.3l0,0c-129.1-46.6-93.3-207.7-86-235.6l0,0C331.8,423.8,331.4,465.4,332,477.1z"/>
		<path class="st3" d="M345.2,526.9c0.9,1.8,1.8,3.5,2.7,5.2"/>
		<path class="st3" d="M357.5,546.9c1.3,1.7,2.5,3.4,3.9,5"/>
		<path class="st3" d="M361.4,551.9c3.9,4.8,8.2,9.3,12.7,13.6"/>
		<path class="st3" d="M332.1,478.2c0-0.3,0-0.6-0.1-1"/>
		<path class="st3" d="M332.1,479.2c0-0.2,0-0.4,0-0.7"/>
		<path class="st3" d="M332.2,479.9c0-0.1,0-0.3,0-0.5"/>
		<path class="st3" d="M338.8,511.7c0.1,0.2,0.1,0.4,0.2,0.5"/>
		<path class="st3" d="M374.1,565.5c2.3,2.1,4.6,4.2,7.1,6.2"/>
		<path class="st3" d="M332,477.1c-0.6-11.7-0.2-53.3,28.2-113.4"/>
		<path class="st3" d="M357.5,546.9c-3.5-4.7-6.6-9.6-9.5-14.7"/>
		<path class="st3" d="M345.2,526.9c-2.4-4.8-4.5-9.7-6.2-14.7"/>
		<path class="st3" d="M396.7,582.6c6.9,4.2,14.2,7.8,21.7,10.8l11.4,4.5l0.2,0.1l0,0"/>
		<path class="st3" d="M438.6,599.8c0.7,0,1.5,0.1,2.2,0.1"/>
		<path class="st3" d="M444.2,599.7c0.8-0.1,1.5-0.2,2.3-0.3"/>
		<path class="st3" d="M441.7,599.8c0.6,0,1.1,0,1.7-0.1"/>
		<path class="st3" d="M332,477.1v0.1"/>
		<path class="st3" d="M332.1,478.2c0,0.1,0,0.2,0,0.2"/>
		<path class="st3" d="M332.2,480.1c0,0.2,0,0.4,0,0.4l0,0c0.8,10.6,3,21.1,6.5,31.2"/>
		<path class="st3" d="M332.2,479.9c0,0.1,0,0.1,0,0.2"/>
		<path class="st3" d="M332.1,479.2c0,0.1,0,0.2,0,0.3"/>
		<path class="st3" d="M360.2,363.7L360.2,363.7"/>
		<path class="st3" d="M438.6,599.8h-0.3"/>
		<path class="st3" d="M435.8,599.5c-0.3,0-0.5-0.1-0.8-0.2"/>
		<path class="st3" d="M441.7,599.8h-0.9"/>
		<path class="st3" d="M446.5,599.3L446.5,599.3"/>
		<path class="st3" d="M444.2,599.7l-0.9,0.1"/>
		<path class="st3" d="M435.8,599.5c0.8,0.1,1.6,0.2,2.5,0.3"/>
		<path class="st3" d="M433.2,598.9c0.6,0.2,1.2,0.3,1.9,0.4"/>
		<path class="st3" d="M430,597.9c0.8,0.3,1.7,0.6,2.5,0.8"/>
		<path class="st3" d="M433.2,598.9l-0.8-0.2"/>
		<path class="st3" d="M381.1,571.6c4.9,4,10.1,7.6,15.5,10.9"/>
		<path class="st3" d="M115.7,466.2c0.5,0.5,1,1,1.6,1.5C116.8,467.2,116.2,466.7,115.7,466.2z"/>
		<path class="st3" d="M117.6,467.9c0.6,0.5,1.3,1,2,1.5C118.9,468.9,118.2,468.4,117.6,467.9z"/>
		<path class="st3" d="M120.2,469.9c0.5,0.4,1.1,0.7,1.6,1C121.3,470.5,120.7,470.2,120.2,469.9z"/>
		<path class="st3" d="M122.5,471.2c0.8,0.4,1.6,0.8,2.4,1.2C124,472.1,123.2,471.7,122.5,471.2z"/>
		<path class="st3" d="M178,488.1c3.1,0.3,6.3,0.5,9.4,0.6C184.2,488.6,181.1,488.4,178,488.1z"/>
		<path class="st3" d="M112.1,461.8c0.4,0.7,0.9,1.3,1.4,1.9C113,463.1,112.5,462.4,112.1,461.8z"/>
		<polygon class="st3" points="339.1,355 339.1,355 339.1,355 		"/>
		<path class="st3" d="M114,464.4c0.4,0.4,0.7,0.8,1.1,1.2C114.7,465.2,114.4,464.8,114,464.4z"/>
		<path class="st3" d="M278.4,456.4l0.2-0.2L278.4,456.4z"/>
		<path class="st3" d="M277.2,457.4l0.1-0.1L277.2,457.4z"/>
		<path class="st3" d="M277.7,457l0.2-0.2L277.7,457z"/>
		<path class="st3" d="M279.3,455.6L279.3,455.6L279.3,455.6z"/>
		<path class="st3" d="M187.4,488.7c6.2,0.2,12.4,0,18.6-0.7C199.8,488.7,193.6,488.9,187.4,488.7z"/>
		<path class="st3" d="M229.3,483.4c1.9-0.6,3.8-1.1,5.6-1.8C233.1,482.2,231.2,482.8,229.3,483.4z"/>
		<path class="st3" d="M205.9,488c2.1-0.2,4.2-0.5,6.3-0.8C210.2,487.5,208.1,487.8,205.9,488z"/>
		<path class="st3" d="M249.8,475.5l0.5-0.2L249.8,475.5z"/>
		<path class="st3" d="M279.4,455.5L279.4,455.5l-0.8,0.8l-0.2,0.2l-0.5,0.5l-0.2,0.2l-0.4,0.3l-0.1,0.1l-0.3,0.2l0,0
			c-8.1,7-17,12.9-26.6,17.6l-0.5,0.2c-4.8,2.3-9.7,4.4-14.8,6.1c-1.9,0.7-3.7,1.3-5.6,1.8c-5.6,1.6-11.3,2.9-17.1,3.8
			c-2.1,0.3-4.2,0.6-6.3,0.8c-6.2,0.7-12.4,0.9-18.6,0.7c-3.1-0.1-6.2-0.3-9.4-0.6c-14.4-1.4-28.4-5.1-41.7-10.8l-11.3-4.8l-0.2-0.1
			l0,0c-0.8-0.4-1.6-0.8-2.4-1.2l-0.7-0.4c-0.6-0.3-1.1-0.6-1.6-1l-0.7-0.4c-0.7-0.5-1.4-1-2-1.5l-0.2-0.2c-0.6-0.5-1.1-1-1.6-1.5
			c-0.2-0.2-0.4-0.4-0.6-0.6c-0.4-0.4-0.8-0.8-1.1-1.2l-0.6-0.7c-0.5-0.6-0.9-1.2-1.4-1.9l0,0C236.8,519.7,324.7,380,339.1,355l0,0
			C317.1,417.7,288,447.6,279.4,455.5z"/>
		<path class="st3" d="M235,481.6c-1.9,0.7-3.7,1.3-5.6,1.8"/>
		<path class="st3" d="M212.3,487.2c-2.1,0.3-4.2,0.6-6.3,0.8"/>
		<path class="st3" d="M205.9,488c-6.2,0.7-12.4,0.9-18.6,0.7"/>
		<path class="st3" d="M278.6,456.2l0.7-0.7"/>
		<path class="st3" d="M277.9,456.9l0.5-0.5"/>
		<path class="st3" d="M277.3,457.3l0.4-0.3"/>
		<path class="st3" d="M250.2,475.2l-0.5,0.2"/>
		<path class="st3" d="M187.4,488.7c-3.1-0.1-6.2-0.3-9.4-0.6"/>
		<path class="st3" d="M279.4,455.5c8.6-7.9,37.7-37.7,59.7-100.4"/>
		<path class="st3" d="M212.3,487.2c5.8-0.9,11.5-2.2,17.1-3.8"/>
		<path class="st3" d="M235,481.6c5.1-1.7,10-3.8,14.8-6.1"/>
		<path class="st3" d="M159.3,485c-7.9-1.9-15.6-4.4-23-7.6l-11.3-4.9l-0.2-0.1l0,0"/>
		<path class="st3" d="M117.3,467.7c-0.6-0.5-1.1-1-1.6-1.5"/>
		<path class="st3" d="M113.4,463.7c-0.5-0.6-0.9-1.2-1.4-1.9"/>
		<path class="st3" d="M115.1,465.6c-0.4-0.4-0.7-0.8-1.1-1.2"/>
		<path class="st3" d="M279.4,455.5L279.4,455.5"/>
		<path class="st3" d="M278.6,456.2l-0.2,0.2"/>
		<path class="st3" d="M277.2,457.4l-0.3,0.2l0,0c-8.1,7-17,12.9-26.6,17.6"/>
		<path class="st3" d="M277.3,457.3l-0.1,0.1"/>
		<path class="st3" d="M277.9,456.9l-0.2,0.2"/>
		<path class="st3" d="M339.1,355L339.1,355"/>
		<path class="st3" d="M117.3,467.7l0.2,0.2"/>
		<path class="st3" d="M119.6,469.4l0.7,0.4"/>
		<path class="st3" d="M115.1,465.6c0.2,0.2,0.4,0.4,0.6,0.6"/>
		<path class="st3" d="M112,461.8L112,461.8"/>
		<path class="st3" d="M113.4,463.7l0.6,0.7"/>
		<path class="st3" d="M119.6,469.4c-0.7-0.5-1.4-1-2-1.5"/>
		<path class="st3" d="M121.8,470.9c-0.6-0.3-1.1-0.6-1.6-1"/>
		<path class="st3" d="M124.8,472.4c-0.8-0.4-1.6-0.8-2.4-1.2"/>
		<path class="st3" d="M121.8,470.9l0.7,0.4"/>
		<path class="st3" d="M178,488.1c-6.3-0.6-12.6-1.7-18.7-3.1"/>
	</g>
</g>
</svg>
